<svg width="60" height="60" viewBox="0 0 60 60" fill="none" xmlns="http://www.w3.org/2000/svg">
<path d="M36.105 24.4659C36.2856 24.9878 36.8551 25.2645 37.377 25.0839C37.8989 24.9033 38.1756 24.3338 37.995 23.8119L36.105 24.4659ZM33 21.0833L33.0439 20.0843C33.0293 20.0836 33.0146 20.0833 33 20.0833V21.0833ZM27 30.25V31.25V30.25ZM33 39.4167V40.4167V39.4167ZM27 39.4167L26.9561 40.4157C26.9707 40.4163 26.9853 40.4167 27 40.4167V39.4167ZM23.895 36.0341C23.7144 35.5122 23.1449 35.2355 22.623 35.4161C22.1011 35.5967 21.8244 36.1662 22.005 36.6881L23.895 36.0341ZM31 16.5C31 15.9477 30.5523 15.5 30 15.5C29.4477 15.5 29 15.9477 29 16.5H31ZM29 21.0833C29 21.6356 29.4477 22.0833 30 22.0833C30.5523 22.0833 31 21.6356 31 21.0833H29ZM31 39.4167C31 38.8644 30.5523 38.4167 30 38.4167C29.4477 38.4167 29 38.8644 29 39.4167H31ZM29 44C29 44.5523 29.4477 45 30 45C30.5523 45 31 44.5523 31 44H29ZM37.995 23.8119C37.6322 22.7634 36.9686 21.8465 36.0867 21.1811L34.8821 22.7777C35.4437 23.2014 35.8707 23.7887 36.105 24.4659L37.995 23.8119ZM36.0867 21.1811C35.2045 20.5156 34.1449 20.1327 33.0439 20.0843L32.9561 22.0824C33.6499 22.1129 34.3207 22.3542 34.8821 22.7777L36.0867 21.1811ZM33 20.0833H27V22.0833H33V20.0833ZM27 20.0833C25.5353 20.0833 24.1344 20.6761 23.1045 21.7252L24.5316 23.1263C25.1894 22.4563 26.0777 22.0833 27 22.0833V20.0833ZM23.1045 21.7252C22.0751 22.7736 21.5 24.1917 21.5 25.6667H23.5C23.5 24.7104 23.8731 23.797 24.5316 23.1263L23.1045 21.7252ZM21.5 25.6667C21.5 27.1416 22.0751 28.5597 23.1045 29.6082L24.5316 28.207C23.8731 27.5363 23.5 26.6229 23.5 25.6667H21.5ZM23.1045 29.6082C24.1344 30.6572 25.5353 31.25 27 31.25V29.25C26.0777 29.25 25.1894 28.877 24.5316 28.207L23.1045 29.6082ZM27 31.25H33V29.25H27V31.25ZM33 31.25C33.9223 31.25 34.8106 31.623 35.4684 32.293L36.8955 30.8918C35.8656 29.8428 34.4647 29.25 33 29.25V31.25ZM35.4684 32.293C36.1269 32.9637 36.5 33.8771 36.5 34.8333H38.5C38.5 33.3584 37.9249 31.9403 36.8955 30.8918L35.4684 32.293ZM36.5 34.8333C36.5 35.7895 36.1269 36.703 35.4684 37.3736L36.8955 38.7748C37.9249 37.7264 38.5 36.3083 38.5 34.8333H36.5ZM35.4684 37.3736C34.8106 38.0437 33.9223 38.4167 33 38.4167V40.4167C34.4647 40.4167 35.8656 39.8239 36.8955 38.7748L35.4684 37.3736ZM33 38.4167H27V40.4167H33V38.4167ZM27.0439 38.4176C26.3501 38.3871 25.6793 38.1458 25.1179 37.7223L23.9133 39.3189C24.7955 39.9844 25.8551 40.3673 26.9561 40.4157L27.0439 38.4176ZM25.1179 37.7223C24.5563 37.2986 24.1293 36.7113 23.895 36.0341L22.005 36.6881C22.3678 37.7366 23.0314 38.6535 23.9133 39.3189L25.1179 37.7223ZM29 16.5V21.0833H31V16.5H29ZM29 39.4167V44H31V39.4167H29ZM53 30C53 42.7025 42.7025 53 30 53V55C43.8071 55 55 43.8071 55 30H53ZM30 53C17.2974 53 7 42.7025 7 30H5C5 43.8071 16.1929 55 30 55V53ZM7 30C7 17.2974 17.2974 7 30 7V5C16.1929 5 5 16.1929 5 30H7ZM30 7C42.7025 7 53 17.2974 53 30H55C55 16.1929 43.8071 5 30 5V7Z" fill="black"/>
</svg>
