<svg width="50" height="50" viewBox="0 0 50 50" fill="none" xmlns="http://www.w3.org/2000/svg">
<path d="M29.9718 29.9718C27.226 32.7177 22.774 32.7177 20.0282 29.9718M29.9718 29.9718C32.7177 27.226 32.7177 22.774 29.9718 20.0282M29.9718 29.9718L37.4296 37.4296M20.0282 29.9718C17.2823 27.226 17.2823 22.774 20.0282 20.0282M20.0282 29.9718L12.5704 37.4296M20.0282 20.0282C22.774 17.2823 27.226 17.2823 29.9718 20.0282M20.0282 20.0282L12.5704 12.5704M29.9718 20.0282L37.4296 12.5704M38.2583 38.2583C30.9359 45.5806 19.0641 45.5806 11.7417 38.2583C4.41942 30.9359 4.41942 19.0641 11.7417 11.7417C19.0641 4.41942 30.9359 4.41942 38.2583 11.7417C45.5806 19.0641 45.5806 30.9359 38.2583 38.2583Z" stroke="#FAFAF5" stroke-width="2" stroke-linecap="round" stroke-linejoin="round"/>
</svg>
