<svg width="60" height="60" viewBox="0 0 60 60" fill="none" xmlns="http://www.w3.org/2000/svg">
<path d="M7.5 23.5401C7.5 22.6166 7.97004 21.7503 8.76143 21.2151L28.2614 8.02793C29.3023 7.32402 30.6977 7.32402 31.7386 8.02793L51.2386 21.2151C52.03 21.7503 52.5 22.6166 52.5 23.5401V48.2205C52.5 50.584 50.4853 52.5 48 52.5H12C9.51472 52.5 7.5 50.584 7.5 48.2205V23.5401Z" stroke="black" stroke-width="2"/>
<path d="M35.625 32.8125C35.625 35.9191 33.1066 38.4375 30 38.4375C26.8934 38.4375 24.375 35.9191 24.375 32.8125C24.375 29.7059 26.8934 27.1875 30 27.1875C33.1066 27.1875 35.625 29.7059 35.625 32.8125Z" stroke="black" stroke-width="2"/>
</svg>
