<svg width="50" height="50" viewBox="0 0 50 50" fill="none" xmlns="http://www.w3.org/2000/svg">
<path fill-rule="evenodd" clip-rule="evenodd" d="M28.4923 8.99223C27.6016 5.33592 22.3984 5.33592 21.5077 8.99223C21.3747 9.54165 21.1139 10.0519 20.7465 10.4815C20.3791 10.9111 19.9154 11.2478 19.3932 11.4644C18.871 11.6809 18.3051 11.7711 17.7415 11.7276C17.1779 11.6842 16.6325 11.5082 16.1497 11.2141C12.934 9.25473 9.2542 12.9345 11.2136 16.1502C12.4793 18.2267 11.3566 20.9362 8.99403 21.5104C5.33532 22.3987 5.33532 27.6042 8.99403 28.4902C9.54361 28.6233 10.054 28.8844 10.4836 29.2521C10.9131 29.6198 11.2498 30.0838 11.4662 30.6062C11.6825 31.1287 11.7724 31.6948 11.7285 32.2586C11.6846 32.8223 11.5082 33.3677 11.2136 33.8504C9.2542 37.0661 12.934 40.7458 16.1497 38.7864C16.6324 38.4919 17.1778 38.3155 17.7416 38.2716C18.3054 38.2277 18.8715 38.3176 19.394 38.5339C19.9164 38.7503 20.3804 39.0869 20.7481 39.5165C21.1159 39.9461 21.3769 40.4564 21.51 41.006C22.3984 44.6647 27.604 44.6647 28.49 41.006C28.6235 40.4567 28.8849 39.9467 29.2526 39.5174C29.6204 39.0882 30.0843 38.7517 30.6066 38.5354C31.1289 38.3192 31.6949 38.2292 32.2585 38.2728C32.8221 38.3164 33.3675 38.4924 33.8503 38.7864C37.066 40.7458 40.7458 37.0661 38.7864 33.8504C38.4923 33.3676 38.3163 32.8223 38.2727 32.2587C38.2291 31.6951 38.3191 31.1291 38.5354 30.6068C38.7516 30.0845 39.0881 29.6207 39.5174 29.2529C39.9467 28.8851 40.4567 28.6238 41.006 28.4902C44.6647 27.6019 44.6647 22.3963 41.006 21.5104C40.4564 21.3773 39.946 21.1162 39.5164 20.7485C39.0869 20.3808 38.7502 19.9168 38.5338 19.3944C38.3175 18.8719 38.2276 18.3058 38.2715 17.742C38.3154 17.1783 38.4918 16.6328 38.7864 16.1502C40.7458 12.9345 37.066 9.25473 33.8503 11.2141C33.3676 11.5087 32.8222 11.6851 32.2584 11.729C31.6946 11.7729 31.1285 11.683 30.606 11.4667C30.0836 11.2503 29.6196 10.9137 29.2519 10.4841C28.8841 10.0545 28.6231 9.54414 28.49 8.99457L28.4923 8.99223Z" stroke="#FAFAF5" stroke-width="2"/>
<path d="M29.1667 25C29.1667 27.3012 27.3012 29.1667 25 29.1667C22.6988 29.1667 20.8333 27.3012 20.8333 25C20.8333 22.6988 22.6988 20.8333 25 20.8333C27.3012 20.8333 29.1667 22.6988 29.1667 25Z" stroke="#FAFAF5" stroke-width="2"/>
</svg>
